<svg xmlns="http://www.w3.org/2000/svg" viewBox="0 0 96 96" role="img" aria-label="T'ARAN logo mark">
  <defs>
    <linearGradient id="bg" x1="18" y1="8" x2="82" y2="92" gradientUnits="userSpaceOnUse">
      <stop offset="0" stop-color="#4A3B32"/>
      <stop offset="1" stop-color="#2F261F"/>
    </linearGradient>
    <linearGradient id="accent" x1="22" y1="22" x2="76" y2="78" gradientUnits="userSpaceOnUse">
      <stop offset="0" stop-color="#E2C4A3"/>
      <stop offset="1" stop-color="#C7A17A"/>
    </linearGradient>
  </defs>
  <rect x="4" y="4" width="88" height="88" rx="28" fill="url(#bg)"/>
  <path d="M26 34c0-6.6 5.4-12 12-12h20c8.8 0 16 7.2 16 16v20c0 8.8-7.2 16-16 16H38c-6.6 0-12-5.4-12-12V34z" fill="#FAF6F0"/>
  <path d="M38 36h15c6.6 0 12 5.4 12 12v2c0 6.6-5.4 12-12 12H38V36z" fill="url(#accent)"/>
  <circle cx="53" cy="49" r="6" fill="#4A3B32"/>
  <path d="M30 70h34" stroke="#C7A17A" stroke-width="6" stroke-linecap="round"/>
</svg>
